<svg xmlns="http://www.w3.org/2000/svg" xmlns:xlink="http://www.w3.org/1999/xlink" viewBox="0 0 437.5 81.11"><defs><style>.cls-1{fill:url(#linear-gradient);}.cls-2{fill:url(#linear-gradient-2);}.cls-3{fill:url(#linear-gradient-3);}.cls-4{fill:url(#linear-gradient-4);}.cls-5,.cls-6{fill:#226aab;}.cls-6{font-size:48px;font-family:Comfortaa-Bold, Comfortaa;font-weight:700;}</style><linearGradient id="linear-gradient" x1="5.15" y1="27.68" x2="45.73" y2="44" gradientUnits="userSpaceOnUse"><stop offset="0" stop-color="#1a97c2"/><stop offset="0.28" stop-color="#1d84b8"/><stop offset="0.65" stop-color="#2171af"/><stop offset="0.91" stop-color="#226aab"/></linearGradient><linearGradient id="linear-gradient-2" x1="26.25" y1="14.48" x2="77.52" y2="65.75" gradientUnits="userSpaceOnUse"><stop offset="0" stop-color="#1a97c2"/><stop offset="1" stop-color="#226aab"/></linearGradient><linearGradient id="linear-gradient-3" x1="29.83" y1="26.93" x2="47.53" y2="57.59" gradientUnits="userSpaceOnUse"><stop offset="0" stop-color="#1a97c2"/><stop offset="1" stop-color="#236bac"/></linearGradient><linearGradient id="linear-gradient-4" x1="47.37" y1="47.26" x2="62.49" y2="47.26" gradientUnits="userSpaceOnUse"><stop offset="0.36" stop-color="#1a97c2"/><stop offset="1" stop-color="#226aab"/></linearGradient></defs><g id="Layer_2" data-name="Layer 2"><g id="Layer_1-2" data-name="Layer 1"><path class="cls-1" d="M.05,37.73A39.11,39.11,0,0,1,10.9,13.09C22.9.83,38.67,1.45,41.13,1.59A33,33,0,0,0,30,6.52C15.22,16.74,8.29,40.44,17.14,58.76c6.47,13.4,19,19,23.33,20.7-2.42,0-21.34-.75-32.86-16.43A40.11,40.11,0,0,1,.05,37.73Z"/><path class="cls-2" d="M32.91,8.82a40.2,40.2,0,0,0-11.17,11.5c-7.37,12-4.92,25.12-3.94,29.24A38.61,38.61,0,0,0,28.31,68.62a38.91,38.91,0,0,0,15.77,9.2,42.25,42.25,0,0,0,14.13,2l8.22-22.34,19.06.33q-4.6-9.37-9.2-18.73H66.1l-7.89,21-22.34.32a22.58,22.58,0,0,1-9.53-6.24A20.13,20.13,0,0,1,20.75,41a22.08,22.08,0,0,1,3.5-12.25,18.68,18.68,0,0,1,8.33-6.48,15,15,0,0,1,4.6-1c5.53-.35,18.9-.51,36.48-.33Q68.89,10.62,64.13.27A43.88,43.88,0,0,0,46.38,1.92,46.51,46.51,0,0,0,32.91,8.82Z"/><path class="cls-3" d="M36.92,36.08c.48-2.33,1.27-6.17,4.27-9.2,2-2,3.78-2.46,3.62-3-.28-.85-6.45-.87-11.33,1.1a15.63,15.63,0,0,0-7.4,6.13c-2.58,3.71-2.4,7.72-2.3,9.86a17.31,17.31,0,0,0,3.28,9.85,18,18,0,0,0,8.22,5.92c5.12,2.11,10.88,2.31,11.17,1.31.17-.6-1.84-1-4.27-3.28a19.25,19.25,0,0,1-5.59-11.18A20.8,20.8,0,0,1,36.92,36.08Z"/><path class="cls-4" d="M55.91,39.7l6.58-.32q-3,7.88-5.92,15.77L47.37,40Q51.6,39.89,55.91,39.7Z"/><path class="cls-5" d="M74.19,61.49c2.42.06,4.27,0,6.7,0,3.61,6.9,6.9,12.74,10.51,19.64H61.83l7.56-19.72C71,61.31,72.5,61.45,74.19,61.49Z"/><text class="cls-6" transform="translate(111.1 58.67)">G-MEDSNIAL</text></g></g></svg>